<svg  viewBox="0 0 290 96" xmlns="http://www.w3.org/2000/svg">
<path fill-rule="evenodd" clip-rule="evenodd" d="M32.9997 0V96C48.1872 96 60.5088 83.7318 60.6112 68.5587H60.6138V0H32.9997ZM0 55.1856V68.3699C0 83.6302 12.3631 96 27.614 96V66.9949C4.08605 66.9949 0 55.1856 0 55.1856ZM0.473843 0H28.087V27.6301H28.1437V53.3501C6.87156 53.3501 0.41292 41.3833 0.41292 41.3833C0.19546 41.1649 0.473843 27.6301 0.473843 27.6301V0Z"/>
<path fill-rule="evenodd" clip-rule="evenodd" d="M109.613 0.00083715V96C124.801 96 137.123 83.7319 137.225 68.559H137.228V27.6307C137.228 12.3705 124.864 0 109.613 0V0.00083715ZM104.7 0.000827789C89.4496 0.00128365 77.0868 12.3716 77.0868 27.6315C77.0868 27.6315 76.8084 41.1662 77.0259 41.3846C77.0259 41.3846 83.4846 53.3513 104.757 53.3513V27.6315H104.7V0.000827789ZM104.227 68.3685V95.9991C88.9765 95.9987 76.6138 83.6283 76.6138 68.3685H104.227Z" />
<path fill-rule="evenodd" clip-rule="evenodd" d="M181.073 66.6182H181.069L181.068 66.6174V96H180.915C165.624 96 153.228 83.6045 153.228 68.3125V0H181.073V66.6182ZM185.878 68.3125H213.352V96H185.878V68.3125Z"/>
<path fill-rule="evenodd" clip-rule="evenodd" d="M262.351 0.00083715V96C277.539 96 289.861 83.7319 289.963 68.559H289.966V27.6307C289.966 12.3705 277.603 0 262.351 0V0.00083715ZM257.439 0.000827789C242.188 0.00128365 229.825 12.3716 229.825 27.6315C229.825 27.6315 229.547 41.1662 229.764 41.3846C229.764 41.3846 236.223 53.3513 257.495 53.3513V27.6315H257.439V0.000827789ZM256.966 68.3685V95.9991C241.715 95.9987 229.352 83.6283 229.352 68.3685H256.966Z"/>
</svg>
