<svg viewBox="0 0 145 48" fill="none" xmlns="http://www.w3.org/2000/svg">
<path fill-rule="evenodd" clip-rule="evenodd" d="M16.4999 0V48C24.0936 48 30.2544 41.8659 30.3056 34.2794H30.3069V0H16.4999ZM0 27.5928V34.185C0 41.8151 6.18153 48 13.807 48V33.4975C2.04302 33.4975 0 27.5928 0 27.5928ZM0.236925 0H14.0435V13.815H14.0719V26.675C3.43579 26.675 0.206464 20.6917 0.206464 20.6917C0.0977341 20.5824 0.236925 13.815 0.236925 13.815V0Z" fill="white"/>
<path fill-rule="evenodd" clip-rule="evenodd" d="M54.8066 0.000418575V48C62.4004 48 68.5613 41.866 68.6125 34.2795H68.6138V13.8153C68.6138 6.18526 62.4321 0 54.8066 0V0.000418575ZM52.3502 0.000413418C44.7248 0.00064135 38.5434 6.18582 38.5434 13.8158C38.5434 13.8158 38.4042 20.5831 38.5129 20.6923C38.5129 20.6923 41.7423 26.6756 52.3785 26.6756V13.8158H52.3502V0.000413418ZM52.1137 34.1842V47.9996C44.4883 47.9993 38.3069 41.8142 38.3069 34.1842H52.1137Z" fill="white"/>
<path fill-rule="evenodd" clip-rule="evenodd" d="M90.5364 33.3091H90.5343L90.5339 33.3087V48H90.4575C82.8119 48 76.6138 41.8023 76.6138 34.1563V0H90.5364V33.3091ZM92.9391 34.1562H106.676V48H92.9391V34.1562Z" fill="white"/>
<path fill-rule="evenodd" clip-rule="evenodd" d="M131.176 0.000418575V48C138.77 48 144.93 41.866 144.982 34.2795H144.983V13.8153C144.983 6.18526 138.801 0 131.176 0V0.000418575ZM128.719 0.000413418C121.094 0.00064135 114.913 6.18582 114.913 13.8158C114.913 13.8158 114.773 20.5831 114.882 20.6923C114.882 20.6923 118.111 26.6756 128.748 26.6756V13.8158H128.719V0.000413418ZM128.483 34.1842V47.9996C120.857 47.9993 114.676 41.8142 114.676 34.1842H128.483Z" fill="white"/>
</svg>
