<svg viewBox="0 0 28 44" xmlns="http://www.w3.org/2000/svg">
<path d="M6.44475 24.5H21.5553C23.2877 24.5 24.7595 25.7675 25.0165 27.4808L26.8165 39.4808C27.1339 41.5969 25.495 43.5 23.3553 43.5H4.64475C2.50496 43.5 0.866055 41.5969 1.18347 39.4808L2.98347 27.4808C3.24047 25.7675 4.71226 24.5 6.44475 24.5Z" fill="white" stroke="black"/>
<path d="M22.5 9V20C22.5 24.1421 19.1421 27.5 15 27.5H13C8.85786 27.5 5.5 24.1421 5.5 20V9C5.5 4.30558 9.30558 0.5 14 0.5C18.6944 0.5 22.5 4.30558 22.5 9Z" fill="white" stroke="black"/>
<rect x="17.5" y="21.5" width="7" height="11" rx="3.5" transform="rotate(-180 17.5 21.5)" fill="white" stroke="black"/>
<rect x="25.5" y="9.5" width="5" height="23" rx="2.5" transform="rotate(90 25.5 9.5)" fill="#74E9E1" stroke="black"/>
</svg>
