<svg  viewBox="0 0 40 40" fill="none" xmlns="http://www.w3.org/2000/svg">
<path d="M28.3333 14.4427C28.3333 12.2326 27.4554 10.113 25.8926 8.55015C24.3298 6.98735 22.2101 6.10938 20 6.10938C17.7899 6.10938 15.6702 6.98735 14.1074 8.55015C12.5446 10.113 11.6667 12.2326 11.6667 14.4427C11.6667 24.1649 7.5 26.9427 7.5 26.9427H32.5C32.5 26.9427 28.3333 24.1649 28.3333 14.4427Z" stroke="#6B7280" stroke-width="2.08" stroke-linecap="round" stroke-linejoin="round"/>
<path d="M22.4032 32.5C22.159 32.9209 21.8085 33.2704 21.3869 33.5132C20.9652 33.7561 20.4871 33.884 20.0004 33.884C19.5138 33.884 19.0357 33.7561 18.614 33.5132C18.1923 33.2704 17.8418 32.9209 17.5977 32.5" stroke="#6B7280" stroke-width="2.08" stroke-linecap="round" stroke-linejoin="round"/>
</svg>
