<svg width="24" height="24" viewBox="0 0 24 24" fill="none" xmlns="http://www.w3.org/2000/svg">
<path fill-rule="evenodd" clip-rule="evenodd" d="M11.9991 1.72233C6.32287 1.72233 1.72135 6.32385 1.72135 12.0001C1.72135 17.6764 6.32287 22.2779 11.9991 22.2779C17.6754 22.2779 22.2769 17.6764 22.2769 12.0001C22.2769 6.32385 17.6754 1.72233 11.9991 1.72233ZM0.0546875 12.0001C0.0546875 5.40337 5.4024 0.0556641 11.9991 0.0556641C18.5959 0.0556641 23.9436 5.40337 23.9436 12.0001C23.9436 18.5968 18.5959 23.9446 11.9991 23.9446C5.4024 23.9446 0.0546875 18.5968 0.0546875 12.0001ZM11.9993 11.1667C12.4596 11.1667 12.8327 11.5398 12.8327 12V16.4444C12.8327 16.9047 12.4596 17.2778 11.9993 17.2778C11.5391 17.2778 11.166 16.9047 11.166 16.4444V12C11.166 11.5398 11.5391 11.1667 11.9993 11.1667ZM11.9993 6.72233C11.5391 6.72233 11.166 7.09543 11.166 7.55566C11.166 8.0159 11.5391 8.389 11.9993 8.389H12.0105C12.4707 8.389 12.8438 8.0159 12.8438 7.55566C12.8438 7.09543 12.4707 6.72233 12.0105 6.72233H11.9993Z" />
</svg>
