<svg width="24" height="34" viewBox="0 0 24 34" fill="none" xmlns="http://www.w3.org/2000/svg">
<path d="M11.6667 0C5.21667 0 0 5.21667 0 11.6667C0 14.5667 0.833333 17.2833 2.35 19.7333C3.93333 22.3 6.01667 24.5 7.61667 27.0667C8.4 28.3167 8.96667 29.4833 9.56667 30.8333C10 31.75 10.35 33.3333 11.6667 33.3333C12.9833 33.3333 13.3333 31.75 13.75 30.8333C14.3667 29.4833 14.9167 28.3167 15.7 27.0667C17.3 24.5167 19.3833 22.3167 20.9667 19.7333C22.5 17.2833 23.3333 14.5667 23.3333 11.6667C23.3333 5.21667 18.1167 0 11.6667 0ZM11.6667 16.25C9.36667 16.25 7.5 14.3833 7.5 12.0833C7.5 9.78333 9.36667 7.91667 11.6667 7.91667C13.9667 7.91667 15.8333 9.78333 15.8333 12.0833C15.8333 14.3833 13.9667 16.25 11.6667 16.25Z" fill="#FC5230"/>
</svg>
