<svg viewBox="0 0 24 24" fill="none" xmlns="http://www.w3.org/2000/svg">
<path d="M19.5 10.3334C19.5 16.1667 12 21.1667 12 21.1667C12 21.1667 4.5 16.1667 4.5 10.3334C4.5 8.34425 5.29018 6.4366 6.6967 5.03007C8.10322 3.62355 10.0109 2.83337 12 2.83337C13.9891 2.83337 15.8968 3.62355 17.3033 5.03007C18.7098 6.4366 19.5 8.34425 19.5 10.3334Z" stroke-width="1.25" stroke-linecap="round" stroke-linejoin="round"/>
<path d="M12 12.8334C13.3807 12.8334 14.5 11.7141 14.5 10.3334C14.5 8.95266 13.3807 7.83337 12 7.83337C10.6193 7.83337 9.5 8.95266 9.5 10.3334C9.5 11.7141 10.6193 12.8334 12 12.8334Z" stroke-width="1.25" stroke-linecap="round" stroke-linejoin="round"/>
</svg>
