<svg viewBox="0 0 36 36" xmlns="http://www.w3.org/2000/svg">
<path d="M18 19.25C18.6904 19.25 19.25 18.6904 19.25 18C19.25 17.3096 18.6904 16.75 18 16.75C17.3096 16.75 16.75 17.3096 16.75 18C16.75 18.6904 17.3096 19.25 18 19.25Z" fill="#9CA3AF" stroke="#9CA3AF" stroke-width="1.875" stroke-linecap="round" stroke-linejoin="round"/>
<path d="M18 10.5C18.6904 10.5 19.25 9.94036 19.25 9.25C19.25 8.55964 18.6904 8 18 8C17.3096 8 16.75 8.55964 16.75 9.25C16.75 9.94036 17.3096 10.5 18 10.5Z" fill="#9CA3AF" stroke="#9CA3AF" stroke-width="1.875" stroke-linecap="round" stroke-linejoin="round"/>
<path d="M18 28C18.6904 28 19.25 27.4404 19.25 26.75C19.25 26.0596 18.6904 25.5 18 25.5C17.3096 25.5 16.75 26.0596 16.75 26.75C16.75 27.4404 17.3096 28 18 28Z" fill="#9CA3AF" stroke="#9CA3AF" stroke-width="1.875" stroke-linecap="round" stroke-linejoin="round"/>
</svg>
