<svg width="32" height="32" viewBox="0 0 39 40" xmlns="http://www.w3.org/2000/svg">
<path d="M19.5 0C8.736 0 0 8.96 0 20C0 31.04 8.736 40 19.5 40C30.264 40 39 31.04 39 20C39 8.96 30.264 0 19.5 0ZM19.5 6C22.737 6 25.35 8.68 25.35 12C25.35 15.32 22.737 18 19.5 18C16.263 18 13.65 15.32 13.65 12C13.65 8.68 16.263 6 19.5 6ZM19.5 34.4C14.625 34.4 10.3155 31.84 7.8 27.96C7.8585 23.98 15.6 21.8 19.5 21.8C23.3805 21.8 31.1415 23.98 31.2 27.96C28.6845 31.84 24.375 34.4 19.5 34.4Z" fill="current"/>
</svg>
