<svg viewBox="0 0 24 24" fill="none" xmlns="http://www.w3.org/2000/svg">
<path d="M4.5 7H6.16667H19.5" stroke="black" stroke-width="1.25" stroke-linecap="round" stroke-linejoin="round"/>
<path d="M17.8327 7.00001V18.6667C17.8327 19.1087 17.6571 19.5326 17.3445 19.8452C17.032 20.1577 16.608 20.3333 16.166 20.3333H7.83268C7.39065 20.3333 6.96673 20.1577 6.65417 19.8452C6.34161 19.5326 6.16602 19.1087 6.16602 18.6667V7.00001M8.66602 7.00001V5.33334C8.66602 4.89131 8.84161 4.46739 9.15417 4.15483C9.46673 3.84227 9.89065 3.66667 10.3327 3.66667H13.666C14.108 3.66667 14.532 3.84227 14.8445 4.15483C15.1571 4.46739 15.3327 4.89131 15.3327 5.33334V7.00001" stroke="black" stroke-width="1.25" stroke-linecap="round" stroke-linejoin="round"/>
<path d="M10.334 11.1667V16.1667" stroke="black" stroke-width="1.25" stroke-linecap="round" stroke-linejoin="round"/>
<path d="M13.666 11.1667V16.1667" stroke="black" stroke-width="1.25" stroke-linecap="round" stroke-linejoin="round"/>
</svg>
