<svg width="72" height="72" viewBox="0 -8 72 72" xmlns="http://www.w3.org/2000/svg">
<path d="M58.5 30.999C58.5 48.499 36 63.499 36 63.499C36 63.499 13.5 48.499 13.5 30.999C13.5 25.0317 15.8705 19.3087 20.0901 15.0891C24.3097 10.8696 30.0326 8.49902 36 8.49902C41.9674 8.49902 47.6903 10.8696 51.9099 15.0891C56.1295 19.3087 58.5 25.0317 58.5 30.999Z" fill="#1E3A8A"/>
<path d="M36 42C42.6274 42 48 36.6274 48 30C48 23.3726 42.6274 18 36 18C29.3726 18 24 23.3726 24 30C24 36.6274 29.3726 42 36 42Z" stroke="white" stroke-width="2" stroke-linecap="round" stroke-linejoin="round"/>
<path d="M36.5195 37.1953C33.6875 37.1953 31.6172 35.5156 31.5391 33.1719H34.0195C34.0977 34.3242 35.1719 35.1445 36.5195 35.1445C38.1016 35.1445 39.2344 33.9922 39.2344 32.4297C39.2344 30.8086 38.0625 29.6562 36.4414 29.6562C35.3477 29.6367 34.5469 30.0273 34.0977 30.8672H31.7344L32.5938 22.8594H40.9531V24.9883H34.6836L34.2539 28.7383H34.3906C34.9375 28.1133 35.9727 27.6641 37.125 27.6641C39.7617 27.6641 41.6953 29.6367 41.6953 32.3516C41.6953 35.1836 39.5664 37.1953 36.5195 37.1953Z" fill="white"/>
</svg>
