<svg width="46" height="56" viewBox="0 0 46 56" fill="none" xmlns="http://www.w3.org/2000/svg">
<path d="M45.5 22.999C45.5 40.499 23 55.499 23 55.499C23 55.499 0.5 40.499 0.5 22.999C0.5 17.0317 2.87053 11.3087 7.0901 7.08912C11.3097 2.86955 17.0326 0.499023 23 0.499023C28.9674 0.499023 34.6903 2.86955 38.9099 7.08912C43.1295 11.3087 45.5 17.0317 45.5 22.999Z" fill="#1D4ED8"/>
<path d="M23 34C29.6274 34 35 28.6274 35 22C35 15.3726 29.6274 10 23 10C16.3726 10 11 15.3726 11 22C11 28.6274 16.3726 34 23 34Z" stroke="white" stroke-width="2" stroke-linecap="round" stroke-linejoin="round"/>
<path d="M23.4902 29.1953C20.4629 29.1953 18.3145 27.5547 18.2559 25.1719H20.8145C20.8926 26.3047 22.0254 27.0469 23.4902 27.0469C25.0527 27.0469 26.166 26.1875 26.166 24.9375C26.166 23.668 25.0723 22.75 23.2363 22.75H21.9668V20.7969H23.2363C24.7402 20.7969 25.7949 19.957 25.7754 18.7266C25.7949 17.5352 24.8965 16.7344 23.5098 16.7344C22.1816 16.7344 21.0293 17.4766 20.9902 18.668H18.5488C18.6074 16.2852 20.7559 14.6641 23.5293 14.6641C26.4004 14.6641 28.2559 16.4219 28.2363 18.5898C28.2559 20.1719 27.2012 21.3242 25.6582 21.6367V21.7539C27.6504 22.0273 28.7832 23.2969 28.7637 25.0742C28.7832 27.457 26.5566 29.1953 23.4902 29.1953Z" fill="white"/>
</svg>
