<svg width="72" height="72" viewBox="0 -8 72 72" fill="none" xmlns="http://www.w3.org/2000/svg">
<path d="M58.5 30.999C58.5 48.499 36 63.499 36 63.499C36 63.499 13.5 48.499 13.5 30.999C13.5 25.0317 15.8705 19.3087 20.0901 15.0891C24.3097 10.8696 30.0326 8.49902 36 8.49902C41.9674 8.49902 47.6903 10.8696 51.9099 15.0891C56.1295 19.3087 58.5 25.0317 58.5 30.999Z" fill="#2563EB"/>
<path d="M36 42C42.6274 42 48 36.6274 48 30C48 23.3726 42.6274 18 36 18C29.3726 18 24 23.3726 24 30C24 36.6274 29.3726 42 36 42Z" stroke="white" stroke-width="2" stroke-linecap="round" stroke-linejoin="round"/>
<path d="M31.6465 37V35.1641L36.6465 30.3398C38.0723 28.9141 38.8145 28.0742 38.8145 26.8828C38.8145 25.5742 37.7793 24.7344 36.3926 24.7344C34.9277 24.7344 33.9902 25.6523 34.0098 27.0781H31.5879C31.5684 24.4023 33.5801 22.6641 36.4121 22.6641C39.3027 22.6641 41.2559 24.3828 41.2559 26.7656C41.2559 28.3672 40.4746 29.6562 37.7012 32.2734L35.1816 34.7734V34.8711H41.4707V37H31.6465Z" fill="white"/>
</svg>
