<svg width="46" height="56" viewBox="0 0 46 56" fill="none" xmlns="http://www.w3.org/2000/svg">
<path d="M45.5 22.999C45.5 40.499 23 55.499 23 55.499C23 55.499 0.5 40.499 0.5 22.999C0.5 17.0317 2.87053 11.3087 7.0901 7.08912C11.3097 2.86955 17.0326 0.499023 23 0.499023C28.9674 0.499023 34.6903 2.86955 38.9099 7.08912C43.1295 11.3087 45.5 17.0317 45.5 22.999Z" fill="#2563EB"/>
<path d="M23 34C29.6274 34 35 28.6274 35 22C35 15.3726 29.6274 10 23 10C16.3726 10 11 15.3726 11 22C11 28.6274 16.3726 34 23 34Z" stroke="white" stroke-width="2" stroke-linecap="round" stroke-linejoin="round"/>
<path d="M18.6465 29V27.1641L23.6465 22.3398C25.0723 20.9141 25.8145 20.0742 25.8145 18.8828C25.8145 17.5742 24.7793 16.7344 23.3926 16.7344C21.9277 16.7344 20.9902 17.6523 21.0098 19.0781H18.5879C18.5684 16.4023 20.5801 14.6641 23.4121 14.6641C26.3027 14.6641 28.2559 16.3828 28.2559 18.7656C28.2559 20.3672 27.4746 21.6562 24.7012 24.2734L22.1816 26.7734V26.8711H28.4707V29H18.6465Z" fill="white"/>
</svg>
