<svg width="72" height="72" viewBox="0 -8 72 72" fill="none" xmlns="http://www.w3.org/2000/svg">
<path d="M58.5 30.999C58.5 48.499 36 63.499 36 63.499C36 63.499 13.5 48.499 13.5 30.999C13.5 25.0317 15.8705 19.3087 20.0901 15.0891C24.3097 10.8696 30.0326 8.49902 36 8.49902C41.9674 8.49902 47.6903 10.8696 51.9099 15.0891C56.1295 19.3087 58.5 25.0317 58.5 30.999Z" fill="#3B82F6"/>
<path d="M36 42C42.6274 42 48 36.6274 48 30C48 23.3726 42.6274 18 36 18C29.3726 18 24 23.3726 24 30C24 36.6274 29.3726 42 36 42Z" stroke="white" stroke-width="2" stroke-linecap="round" stroke-linejoin="round"/>
<path d="M38.3242 22.8594V37H35.7656V25.3398H35.6875L32.3867 27.4492V25.125L35.8828 22.8594H38.3242Z" fill="white"/>
</svg>
