<svg width="46" height="56" viewBox="0 0 46 56" fill="none" xmlns="http://www.w3.org/2000/svg">
<path d="M45.5 22.999C45.5 40.499 23 55.499 23 55.499C23 55.499 0.5 40.499 0.5 22.999C0.5 17.0317 2.87053 11.3087 7.0901 7.08912C11.3097 2.86955 17.0326 0.499023 23 0.499023C28.9674 0.499023 34.6903 2.86955 38.9099 7.08912C43.1295 11.3087 45.5 17.0317 45.5 22.999Z" fill="#3B82F6"/>
<path d="M23 34C29.6274 34 35 28.6274 35 22C35 15.3726 29.6274 10 23 10C16.3726 10 11 15.3726 11 22C11 28.6274 16.3726 34 23 34Z" stroke="white" stroke-width="2" stroke-linecap="round" stroke-linejoin="round"/>
<path d="M25.3242 14.8594V29H22.7656V17.3398H22.6875L19.3867 19.4492V17.125L22.8828 14.8594H25.3242Z" fill="white"/>
</svg>
