<svg width="72" height="72" viewBox="0 -8 72 72" fill="none" xmlns="http://www.w3.org/2000/svg">
<path d="M58.5 30.999C58.5 48.499 36 63.499 36 63.499C36 63.499 13.5 48.499 13.5 30.999C13.5 25.0317 15.8705 19.3087 20.0901 15.0891C24.3097 10.8696 30.0326 8.49902 36 8.49902C41.9674 8.49902 47.6903 10.8696 51.9099 15.0891C56.1295 19.3087 58.5 25.0317 58.5 30.999Z" fill="#1D4ED8"/>
<path d="M36 42C42.6274 42 48 36.6274 48 30C48 23.3726 42.6274 18 36 18C29.3726 18 24 23.3726 24 30C24 36.6274 29.3726 42 36 42Z" stroke="white" stroke-width="2" stroke-linecap="round" stroke-linejoin="round"/>
<path d="M36.4902 37.1953C33.4629 37.1953 31.3145 35.5547 31.2559 33.1719H33.8145C33.8926 34.3047 35.0254 35.0469 36.4902 35.0469C38.0527 35.0469 39.166 34.1875 39.166 32.9375C39.166 31.668 38.0723 30.75 36.2363 30.75H34.9668V28.7969H36.2363C37.7402 28.7969 38.7949 27.957 38.7754 26.7266C38.7949 25.5352 37.8965 24.7344 36.5098 24.7344C35.1816 24.7344 34.0293 25.4766 33.9902 26.668H31.5488C31.6074 24.2852 33.7559 22.6641 36.5293 22.6641C39.4004 22.6641 41.2559 24.4219 41.2363 26.5898C41.2559 28.1719 40.2012 29.3242 38.6582 29.6367V29.7539C40.6504 30.0273 41.7832 31.2969 41.7637 33.0742C41.7832 35.457 39.5566 37.1953 36.4902 37.1953Z" fill="white"/>
</svg>
