<svg width="46" height="56" viewBox="0 0 46 56" fill="none" xmlns="http://www.w3.org/2000/svg">
<path d="M45.5 22.999C45.5 40.499 23 55.499 23 55.499C23 55.499 0.5 40.499 0.5 22.999C0.5 17.0317 2.87053 11.3087 7.0901 7.08912C11.3097 2.86955 17.0326 0.499023 23 0.499023C28.9674 0.499023 34.6903 2.86955 38.9099 7.08912C43.1295 11.3087 45.5 17.0317 45.5 22.999Z" fill="#1E3A8A"/>
<path d="M23 34C29.6274 34 35 28.6274 35 22C35 15.3726 29.6274 10 23 10C16.3726 10 11 15.3726 11 22C11 28.6274 16.3726 34 23 34Z" stroke="white" stroke-width="2" stroke-linecap="round" stroke-linejoin="round"/>
<path d="M23.5195 29.1953C20.6875 29.1953 18.6172 27.5156 18.5391 25.1719H21.0195C21.0977 26.3242 22.1719 27.1445 23.5195 27.1445C25.1016 27.1445 26.2344 25.9922 26.2344 24.4297C26.2344 22.8086 25.0625 21.6562 23.4414 21.6562C22.3477 21.6367 21.5469 22.0273 21.0977 22.8672H18.7344L19.5938 14.8594H27.9531V16.9883H21.6836L21.2539 20.7383H21.3906C21.9375 20.1133 22.9727 19.6641 24.125 19.6641C26.7617 19.6641 28.6953 21.6367 28.6953 24.3516C28.6953 27.1836 26.5664 29.1953 23.5195 29.1953Z" fill="white"/>
</svg>
